<svg xmlns="http://www.w3.org/2000/svg" viewBox="0 0 1440 320"><path fill="#0099ff" fill-opacity="1" d="M0,160L34.3,176C68.6,192,137,224,206,250.7C274.3,277,343,299,411,282.7C480,267,549,213,617,176C685.7,139,754,117,823,128C891.4,139,960,181,1029,192C1097.1,203,1166,181,1234,192C1302.9,203,1371,245,1406,266.7L1440,288L1440,320L1405.7,320C1371.4,320,1303,320,1234,320C1165.7,320,1097,320,1029,320C960,320,891,320,823,320C754.3,320,686,320,617,320C548.6,320,480,320,411,320C342.9,320,274,320,206,320C137.1,320,69,320,34,320L0,320Z"></path></svg>