<svg xmlns="http://www.w3.org/2000/svg" viewBox="0 0 1440 320"><path fill="#e6e9f0" fill-opacity="1" d="M0,128L30,138.7C60,149,120,171,180,165.3C240,160,300,128,360,122.7C420,117,480,139,540,165.3C600,192,660,224,720,208C780,192,840,128,900,96C960,64,1020,64,1080,58.7C1140,53,1200,43,1260,42.7C1320,43,1380,53,1410,58.7L1440,64L1440,320L1410,320C1380,320,1320,320,1260,320C1200,320,1140,320,1080,320C1020,320,960,320,900,320C840,320,780,320,720,320C660,320,600,320,540,320C480,320,420,320,360,320C300,320,240,320,180,320C120,320,60,320,30,320L0,320Z"></path></svg>